<?xml version="1.0" encoding="UTF-8"?>
<svg id="Layer_1" data-name="Layer 1" xmlns="http://www.w3.org/2000/svg" viewBox="0 0 2648 720">
  <defs>
    <style>
      .cls-1 {
        fill: #118955;
        stroke-width: 0px;
      }
    </style>
  </defs>
  <g>
    <polygon class="cls-1" points="260.41 571.3 171.05 571.3 141.16 517.4 98.32 440.17 89.03 423.4 69.77 388.67 159.12 388.67 178.38 423.4 185.84 436.84 187.68 440.17 230.34 517.09 260.41 571.3"/>
    <polygon class="cls-1" points="600.46 440.17 549.85 531.43 527.74 571.3 438.44 571.3 438.41 571.25 482.91 491 505.17 450.87 511.1 440.17 600.46 440.17"/>
    <polygon class="cls-1" points="477.58 71.3 429.76 157.53 342.49 157.53 341.61 155.96 388.56 71.3 477.58 71.3"/>
    <polygon class="cls-1" points="454.72 440.17 365.71 440.17 356.41 423.4 337.15 388.67 319.36 356.58 274.85 276.33 208.97 157.53 297.98 157.53 319.36 196.08 319.36 196.09 363.86 276.34 426.16 388.67 445.43 423.4 454.72 440.17"/>
    <polygon class="cls-1" points="393.59 571.3 304.58 571.3 252.43 477.27 231.85 440.17 222.55 423.4 207.92 397.02 203.29 388.67 292.31 388.67 296.94 397.02 311.56 423.4 320.86 440.17 393.59 571.3"/>
  </g>
  <g>
    <path class="cls-1" d="M790.85,574.9c-13.8,0-26.35-3.3-37.65-9.9-11.3-6.6-20.25-15.75-26.85-27.45-6.6-11.7-9.9-25.15-9.9-40.35s3.25-29.25,9.75-40.95c6.5-11.7,15.3-20.85,26.4-27.45,11.1-6.6,23.85-9.9,38.25-9.9,12.6,0,23.2,2.05,31.8,6.15,8.6,4.1,15.4,9.7,20.4,16.8,5,7.1,8.65,15.35,10.95,24.75,2.3,9.4,3.45,19.6,3.45,30.6,0,8.2-1.2,16.85-3.6,25.95-2.4,9.1-6.15,17.55-11.25,25.35-5.1,7.8-11.9,14.15-20.4,19.05-8.5,4.9-18.95,7.35-31.35,7.35ZM801.05,547.3c11.2,0,20.75-2.15,28.65-6.45,7.9-4.3,13.9-10.25,18-17.85,4.1-7.6,6.15-16.2,6.15-25.8,0-10.6-2.1-19.65-6.3-27.15-4.2-7.5-10.2-13.35-18-17.55-7.8-4.2-17.3-6.3-28.5-6.3-16,0-28.4,4.75-37.2,14.25-8.8,9.5-13.2,21.75-13.2,36.75,0,9.8,2.15,18.5,6.45,26.1,4.3,7.6,10.25,13.5,17.85,17.7,7.6,4.2,16.3,6.3,26.1,6.3ZM853.85,362.2h33.6v209.4h-31.2c-.4-4.6-.9-10.3-1.5-17.1-.6-6.8-.9-12.9-.9-18.3v-174Z"/>
    <path class="cls-1" d="M969.05,358.9v32.1h-39.9v-32.1h39.9ZM932.15,422.2h33.6v149.4h-33.6v-149.4Z"/>
    <path class="cls-1" d="M1005.65,422.2h33.3v149.4h-33.3v-149.4ZM1101.95,418.9c8.6,0,16.55,1.2,23.85,3.6,7.3,2.4,13.6,6.05,18.9,10.95,5.3,4.9,9.4,10.95,12.3,18.15,2.9,7.2,4.35,15.7,4.35,25.5v94.5h-33.3v-87.9c0-12.2-2.95-21.25-8.85-27.15-5.9-5.9-15.15-8.85-27.75-8.85-9.6,0-18.35,2.05-26.25,6.15-7.9,4.1-14.35,9.4-19.35,15.9-5,6.5-7.9,13.65-8.7,21.45l-.3-16.2c1-7.4,3.2-14.45,6.6-21.15,3.4-6.7,7.9-12.7,13.5-18,5.6-5.3,12.2-9.45,19.8-12.45,7.6-3,16-4.5,25.2-4.5ZM1221.05,418.9c8.8,0,16.8,1.2,24,3.6,7.2,2.4,13.45,6.05,18.75,10.95,5.3,4.9,9.45,10.95,12.45,18.15s4.5,15.7,4.5,25.5v94.5h-33.6v-87.9c0-12.2-2.95-21.25-8.85-27.15-5.9-5.9-15.15-8.85-27.75-8.85-9.6,0-18.35,2.05-26.25,6.15-7.9,4.1-14.3,9.4-19.2,15.9-4.9,6.5-7.75,13.65-8.55,21.45l-.6-16.8c1-7.2,3.3-14.15,6.9-20.85,3.6-6.7,8.2-12.65,13.8-17.85,5.6-5.2,12.15-9.3,19.65-12.3s15.75-4.5,24.75-4.5Z"/>
    <path class="cls-1" d="M1317.35,422.2h33.3v149.4h-33.3v-149.4ZM1413.65,418.9c8.6,0,16.55,1.2,23.85,3.6,7.3,2.4,13.6,6.05,18.9,10.95,5.3,4.9,9.4,10.95,12.3,18.15,2.9,7.2,4.35,15.7,4.35,25.5v94.5h-33.3v-87.9c0-12.2-2.95-21.25-8.85-27.15-5.9-5.9-15.15-8.85-27.75-8.85-9.6,0-18.35,2.05-26.25,6.15-7.9,4.1-14.35,9.4-19.35,15.9-5,6.5-7.9,13.65-8.7,21.45l-.3-16.2c1-7.4,3.2-14.45,6.6-21.15,3.4-6.7,7.9-12.7,13.5-18,5.6-5.3,12.2-9.45,19.8-12.45,7.6-3,16-4.5,25.2-4.5Z"/>
    <path class="cls-1" d="M1634.15,500.5l.3,9.6c-.4,2.6-1.25,6.5-2.55,11.7-1.3,5.2-3.4,10.85-6.3,16.95-2.9,6.1-6.7,11.9-11.4,17.4-4.7,5.5-10.55,10-17.55,13.5-7,3.5-15.5,5.25-25.5,5.25-7.2,0-14.45-.95-21.75-2.85-7.3-1.9-13.9-5.05-19.8-9.45-5.9-4.4-10.65-10.4-14.25-18-3.6-7.6-5.4-17.2-5.4-28.8v-93.6h33.3v87.3c0,9.4,1.55,16.75,4.65,22.05,3.1,5.3,7.45,9.05,13.05,11.25,5.6,2.2,12.1,3.3,19.5,3.3,10.6,0,19.6-2.4,27-7.2,7.4-4.8,13.35-10.75,17.85-17.85,4.5-7.1,7.45-13.95,8.85-20.55ZM1665.65,571.6h-33.3v-149.4h33.3v149.4Z"/>
    <path class="cls-1" d="M1769.15,548.5c-14,0-26.65-2.5-37.95-7.5-11.3-5-20.2-12.3-26.7-21.9-6.5-9.6-9.75-21.1-9.75-34.5s3.15-25,9.45-34.8c6.3-9.8,15.1-17.4,26.4-22.8,11.3-5.4,24.15-8.1,38.55-8.1,4.2,0,8.25.3,12.15.9,3.9.6,7.65,1.4,11.25,2.4l69.9.3v27.9c-9.6.2-19.25-1.15-28.95-4.05-9.7-2.9-18.25-5.95-25.65-9.15l-.9-1.8c6.8,3.4,12.95,7.55,18.45,12.45,5.5,4.9,9.85,10.45,13.05,16.65,3.2,6.2,4.8,13.2,4.8,21,0,13.2-3.15,24.5-9.45,33.9-6.3,9.4-15,16.6-26.1,21.6-11.1,5-23.95,7.5-38.55,7.5ZM1817.15,632.5v-6.9c0-9.8-2.9-16.7-8.7-20.7-5.8-4-13.9-6-24.3-6h-40.5c-8,0-14.85-.65-20.55-1.95-5.7-1.3-10.25-3.2-13.65-5.7-3.4-2.5-5.9-5.4-7.5-8.7-1.6-3.3-2.4-6.95-2.4-10.95,0-8,2.45-14,7.35-18,4.9-4,11.4-6.6,19.5-7.8,8.1-1.2,16.65-1.4,25.65-.6l17.1,3.3c-11.8.4-20.75,1.45-26.85,3.15-6.1,1.7-9.15,5.05-9.15,10.05,0,3,1.2,5.4,3.6,7.2,2.4,1.8,5.8,2.7,10.2,2.7h42.6c12.2,0,22.9,1.45,32.1,4.35,9.2,2.9,16.35,7.8,21.45,14.7,5.1,6.9,7.65,16.35,7.65,28.35v13.5h-33.6ZM1769.15,522.4c8,0,15.1-1.5,21.3-4.5,6.2-3,11.1-7.3,14.7-12.9,3.6-5.6,5.4-12.4,5.4-20.4s-1.8-14.9-5.4-20.7c-3.6-5.8-8.5-10.2-14.7-13.2-6.2-3-13.3-4.5-21.3-4.5s-14.85,1.5-21.15,4.5-11.25,7.35-14.85,13.05c-3.6,5.7-5.4,12.65-5.4,20.85s1.8,14.8,5.4,20.4c3.6,5.6,8.5,9.9,14.7,12.9,6.2,3,13.3,4.5,21.3,4.5Z"/>
    <path class="cls-1" d="M1889.14,422.2h33.3v149.4h-33.3v-149.4ZM1976.44,450.7c-10.8,0-20.05,2.3-27.75,6.9-7.7,4.6-13.85,10.2-18.45,16.8-4.6,6.6-7.8,13-9.6,19.2l-.3-16.8c.2-2.2.9-5.55,2.1-10.05,1.2-4.5,3.05-9.45,5.55-14.85,2.5-5.4,5.9-10.65,10.2-15.75,4.3-5.1,9.6-9.25,15.9-12.45,6.3-3.2,13.75-4.8,22.35-4.8v31.8Z"/>
    <path class="cls-1" d="M2068.24,574.9c-13.6,0-26.05-3.3-37.35-9.9-11.3-6.6-20.3-15.75-27-27.45-6.7-11.7-10.05-25.15-10.05-40.35s3.4-29.25,10.2-40.95c6.8-11.7,16-20.85,27.6-27.45,11.6-6.6,24.6-9.9,39-9.9,16,0,28.7,3.5,38.1,10.5,9.4,7,16.1,16.4,20.1,28.2,4,11.8,6,25,6,39.6,0,8.2-1.2,16.85-3.6,25.95-2.4,9.1-6.15,17.55-11.25,25.35-5.1,7.8-11.9,14.15-20.4,19.05-8.5,4.9-18.95,7.35-31.35,7.35ZM2078.44,547.3c11.2,0,20.75-2.15,28.65-6.45,7.9-4.3,13.9-10.25,18-17.85,4.1-7.6,6.15-16.2,6.15-25.8,0-10.6-2.1-19.65-6.3-27.15-4.2-7.5-10.2-13.3-18-17.4-7.8-4.1-17.3-6.15-28.5-6.15-16,0-28.4,4.7-37.2,14.1-8.8,9.4-13.2,21.6-13.2,36.6,0,9.8,2.15,18.5,6.45,26.1,4.3,7.6,10.25,13.5,17.85,17.7,7.6,4.2,16.3,6.3,26.1,6.3ZM2131.24,422.2h33.6v149.4h-31.2c-.8-7.6-1.4-14.15-1.8-19.65-.4-5.5-.6-10.75-.6-15.75v-114Z"/>
    <path class="cls-1" d="M2204.44,571.6v-209.4h33.3v209.4h-33.3ZM2326.84,571.6v-86.4c0-8-1.35-14.65-4.05-19.95-2.7-5.3-6.85-9.35-12.45-12.15-5.6-2.8-13-4.2-22.2-4.2s-17.6,1.95-25.2,5.85c-7.6,3.9-13.8,9.05-18.6,15.45-4.8,6.4-7.6,13.5-8.4,21.3l-.3-16.8c1-7.2,3.2-14.15,6.6-20.85,3.4-6.7,7.9-12.65,13.5-17.85,5.6-5.2,12.2-9.35,19.8-12.45,7.6-3.1,16-4.65,25.2-4.65,8.6,0,16.55,1.2,23.85,3.6,7.3,2.4,13.6,5.95,18.9,10.65,5.3,4.7,9.4,10.5,12.3,17.4,2.9,6.9,4.35,14.85,4.35,23.85v97.2h-33.3Z"/>
    <path class="cls-1" d="M2463.64,574.9c-13.6,0-26.05-3.3-37.35-9.9-11.3-6.6-20.3-15.75-27-27.45-6.7-11.7-10.05-25.15-10.05-40.35s3.4-29.25,10.2-40.95c6.8-11.7,16-20.85,27.6-27.45,11.6-6.6,24.6-9.9,39-9.9,16,0,28.7,3.5,38.1,10.5,9.4,7,16.1,16.4,20.1,28.2,4,11.8,6,25,6,39.6,0,8.2-1.2,16.85-3.6,25.95-2.4,9.1-6.15,17.55-11.25,25.35-5.1,7.8-11.9,14.15-20.4,19.05-8.5,4.9-18.95,7.35-31.35,7.35ZM2473.84,547.3c11.2,0,20.75-2.15,28.65-6.45,7.9-4.3,13.9-10.25,18-17.85,4.1-7.6,6.15-16.2,6.15-25.8,0-10.6-2.1-19.65-6.3-27.15-4.2-7.5-10.2-13.3-18-17.4-7.8-4.1-17.3-6.15-28.5-6.15-16,0-28.4,4.7-37.2,14.1-8.8,9.4-13.2,21.6-13.2,36.6,0,9.8,2.15,18.5,6.45,26.1,4.3,7.6,10.25,13.5,17.85,17.7,7.6,4.2,16.3,6.3,26.1,6.3ZM2526.64,422.2h33.6v149.4h-31.2c-.8-7.6-1.4-14.15-1.8-19.65-.4-5.5-.6-10.75-.6-15.75v-114Z"/>
  </g>
</svg>