<?xml version="1.0" encoding="UTF-8"?>
<svg id="Layer_1" data-name="Layer 1" xmlns="http://www.w3.org/2000/svg" viewBox="0 0 2648 720">
  <defs>
    <style>
      .cls-1 {
        stroke-width: 0px;
      }

      .cls-1, .cls-2 {
        fill: #118955;
      }

      .cls-2 {
        font-family: Syne-SemiBold, Syne;
        font-size: 300px;
        font-weight: 600;
      }
    </style>
  </defs>
  <g>
    <polygon class="cls-1" points="260.41 571.3 171.05 571.3 141.16 517.4 98.32 440.17 89.03 423.4 69.77 388.67 159.12 388.67 178.38 423.4 185.84 436.84 187.68 440.17 230.34 517.09 260.41 571.3"/>
    <polygon class="cls-1" points="600.46 440.17 549.85 531.43 527.74 571.3 438.44 571.3 438.41 571.25 482.91 491 505.17 450.87 511.1 440.17 600.46 440.17"/>
    <polygon class="cls-1" points="477.58 71.3 429.76 157.53 342.49 157.53 341.61 155.96 388.56 71.3 477.58 71.3"/>
    <polygon class="cls-1" points="454.72 440.17 365.71 440.17 356.41 423.4 337.15 388.67 319.36 356.58 274.85 276.33 208.97 157.53 297.98 157.53 319.36 196.08 319.36 196.09 363.86 276.34 426.16 388.67 445.43 423.4 454.72 440.17"/>
    <polygon class="cls-1" points="393.59 571.3 304.58 571.3 252.43 477.27 231.85 440.17 222.55 423.4 207.92 397.02 203.29 388.67 292.31 388.67 296.94 397.02 311.56 423.4 320.86 440.17 393.59 571.3"/>
  </g>
  <text class="cls-2" transform="translate(705.65 571.6)"><tspan x="0" y="0">dimnugraha</tspan></text>
</svg>